<?xml version="1.0" encoding="UTF-8" standalone="no"?>
<!DOCTYPE svg PUBLIC "-//W3C//DTD SVG 1.1//EN"
 "http://www.w3.org/Graphics/SVG/1.1/DTD/svg11.dtd">
<!-- Generated by graphviz version 2.38.0 (20140413.2041)
 -->
<!-- Title: %3 Pages: 1 -->
<svg width="828pt" height="476pt"
 viewBox="0.00 0.00 828.01 476.00" xmlns="http://www.w3.org/2000/svg" xmlns:xlink="http://www.w3.org/1999/xlink">
<g id="graph0" class="graph" transform="scale(1 1) rotate(0) translate(4 472)">
<title>%3</title>
<polygon fill="white" stroke="none" points="-4,4 -4,-472 824.014,-472 824.014,4 -4,4"/>
<!-- [root] azurerm_public_ip.myip -->
<g id="node1" class="node"><title>[root] azurerm_public_ip.myip</title>
<polygon fill="none" stroke="black" points="247.886,-324 58.8864,-324 58.8864,-288 247.886,-288 247.886,-324"/>
<text text-anchor="middle" x="153.386" y="-302.3" font-family="Times,serif" font-size="14.00">azurerm_public_ip.myip</text>
</g>
<!-- [root] azurerm_resource_group.thegroup -->
<g id="node2" class="node"><title>[root] azurerm_resource_group.thegroup</title>
<polygon fill="none" stroke="black" points="438.386,-180 172.386,-180 172.386,-144 438.386,-144 438.386,-180"/>
<text text-anchor="middle" x="305.386" y="-158.3" font-family="Times,serif" font-size="14.00">azurerm_resource_group.thegroup</text>
</g>
<!-- [root] azurerm_public_ip.myip&#45;&gt;[root] azurerm_resource_group.thegroup -->
<g id="edge1" class="edge"><title>[root] azurerm_public_ip.myip&#45;&gt;[root] azurerm_resource_group.thegroup</title>
<path fill="none" stroke="black" d="M152.51,-287.871C152.434,-268.275 155.267,-236.285 172.386,-216 184.222,-201.976 200.292,-191.633 217.171,-184.014"/>
<polygon fill="black" stroke="black" points="218.741,-187.15 226.609,-180.055 216.034,-180.695 218.741,-187.15"/>
</g>
<!-- [root] provider.azurerm -->
<g id="node5" class="node"><title>[root] provider.azurerm</title>
<polygon fill="none" stroke="black" points="305.386,-108 176.522,-90 305.386,-72 434.251,-90 305.386,-108"/>
<text text-anchor="middle" x="305.386" y="-86.3" font-family="Times,serif" font-size="14.00">provider.azurerm</text>
</g>
<!-- [root] azurerm_resource_group.thegroup&#45;&gt;[root] provider.azurerm -->
<g id="edge2" class="edge"><title>[root] azurerm_resource_group.thegroup&#45;&gt;[root] provider.azurerm</title>
<path fill="none" stroke="black" d="M305.386,-143.697C305.386,-135.983 305.386,-126.712 305.386,-118.112"/>
<polygon fill="black" stroke="black" points="308.886,-118.104 305.386,-108.104 301.886,-118.104 308.886,-118.104"/>
</g>
<!-- [root] var.location -->
<g id="node6" class="node"><title>[root] var.location</title>
<ellipse fill="none" stroke="black" cx="545.386" cy="-90" rx="93.6835" ry="18"/>
<text text-anchor="middle" x="545.386" y="-86.3" font-family="Times,serif" font-size="14.00">[root] var.location</text>
</g>
<!-- [root] azurerm_resource_group.thegroup&#45;&gt;[root] var.location -->
<g id="edge3" class="edge"><title>[root] azurerm_resource_group.thegroup&#45;&gt;[root] var.location</title>
<path fill="none" stroke="black" d="M363.79,-143.966C400.982,-133.118 449.004,-119.111 486.323,-108.227"/>
<polygon fill="black" stroke="black" points="487.436,-111.548 496.056,-105.388 485.476,-104.828 487.436,-111.548"/>
</g>
<!-- [root] var.rg -->
<g id="node7" class="node"><title>[root] var.rg</title>
<ellipse fill="none" stroke="black" cx="91.3864" cy="-90" rx="66.8882" ry="18"/>
<text text-anchor="middle" x="91.3864" y="-86.3" font-family="Times,serif" font-size="14.00">[root] var.rg</text>
</g>
<!-- [root] azurerm_resource_group.thegroup&#45;&gt;[root] var.rg -->
<g id="edge4" class="edge"><title>[root] azurerm_resource_group.thegroup&#45;&gt;[root] var.rg</title>
<path fill="none" stroke="black" d="M253.31,-143.966C219.416,-132.879 175.434,-118.492 141.864,-107.511"/>
<polygon fill="black" stroke="black" points="142.84,-104.148 132.247,-104.366 140.663,-110.801 142.84,-104.148"/>
</g>
<!-- [root] azurerm_subnet.mysub -->
<g id="node3" class="node"><title>[root] azurerm_subnet.mysub</title>
<polygon fill="none" stroke="black" points="450.886,-324 265.886,-324 265.886,-288 450.886,-288 450.886,-324"/>
<text text-anchor="middle" x="358.386" y="-302.3" font-family="Times,serif" font-size="14.00">azurerm_subnet.mysub</text>
</g>
<!-- [root] azurerm_virtual_network.mynet -->
<g id="node4" class="node"><title>[root] azurerm_virtual_network.mynet</title>
<polygon fill="none" stroke="black" points="429.386,-252 181.386,-252 181.386,-216 429.386,-216 429.386,-252"/>
<text text-anchor="middle" x="305.386" y="-230.3" font-family="Times,serif" font-size="14.00">azurerm_virtual_network.mynet</text>
</g>
<!-- [root] azurerm_subnet.mysub&#45;&gt;[root] azurerm_virtual_network.mynet -->
<g id="edge5" class="edge"><title>[root] azurerm_subnet.mysub&#45;&gt;[root] azurerm_virtual_network.mynet</title>
<path fill="none" stroke="black" d="M345.285,-287.697C338.995,-279.389 331.339,-269.277 324.421,-260.141"/>
<polygon fill="black" stroke="black" points="327.164,-257.964 318.337,-252.104 321.583,-262.19 327.164,-257.964"/>
</g>
<!-- [root] azurerm_virtual_network.mynet&#45;&gt;[root] azurerm_resource_group.thegroup -->
<g id="edge6" class="edge"><title>[root] azurerm_virtual_network.mynet&#45;&gt;[root] azurerm_resource_group.thegroup</title>
<path fill="none" stroke="black" d="M305.386,-215.697C305.386,-207.983 305.386,-198.712 305.386,-190.112"/>
<polygon fill="black" stroke="black" points="308.886,-190.104 305.386,-180.104 301.886,-190.104 308.886,-190.104"/>
</g>
<!-- [root] var.appid -->
<g id="node12" class="node"><title>[root] var.appid</title>
<ellipse fill="none" stroke="black" cx="689.386" cy="-18" rx="82.5854" ry="18"/>
<text text-anchor="middle" x="689.386" y="-14.3" font-family="Times,serif" font-size="14.00">[root] var.appid</text>
</g>
<!-- [root] provider.azurerm&#45;&gt;[root] var.appid -->
<g id="edge16" class="edge"><title>[root] provider.azurerm&#45;&gt;[root] var.appid</title>
<path fill="none" stroke="black" d="M358.679,-79.3794C417.222,-68.7986 514.018,-51.2684 597.386,-36 604.149,-34.7614 611.191,-33.4677 618.234,-32.1709"/>
<polygon fill="black" stroke="black" points="619.322,-35.5294 628.522,-30.2748 618.053,-28.6453 619.322,-35.5294"/>
</g>
<!-- [root] var.password -->
<g id="node14" class="node"><title>[root] var.password</title>
<ellipse fill="none" stroke="black" cx="295.386" cy="-18" rx="100.983" ry="18"/>
<text text-anchor="middle" x="295.386" y="-14.3" font-family="Times,serif" font-size="14.00">[root] var.password</text>
</g>
<!-- [root] provider.azurerm&#45;&gt;[root] var.password -->
<g id="edge17" class="edge"><title>[root] provider.azurerm&#45;&gt;[root] var.password</title>
<path fill="none" stroke="black" d="M302.966,-72.055C301.864,-64.3456 300.533,-55.0269 299.296,-46.3642"/>
<polygon fill="black" stroke="black" points="302.733,-45.6798 297.854,-36.2753 295.804,-46.6698 302.733,-45.6798"/>
</g>
<!-- [root] var.sub_id -->
<g id="node15" class="node"><title>[root] var.sub_id</title>
<ellipse fill="none" stroke="black" cx="501.386" cy="-18" rx="87.1846" ry="18"/>
<text text-anchor="middle" x="501.386" y="-14.3" font-family="Times,serif" font-size="14.00">[root] var.sub_id</text>
</g>
<!-- [root] provider.azurerm&#45;&gt;[root] var.sub_id -->
<g id="edge18" class="edge"><title>[root] provider.azurerm&#45;&gt;[root] var.sub_id</title>
<path fill="none" stroke="black" d="M339.976,-76.6465C370.514,-65.7402 415.448,-49.6923 450.157,-37.2963"/>
<polygon fill="black" stroke="black" points="451.415,-40.5636 459.655,-33.9041 449.06,-33.9714 451.415,-40.5636"/>
</g>
<!-- [root] var.tenant -->
<g id="node16" class="node"><title>[root] var.tenant</title>
<ellipse fill="none" stroke="black" cx="89.3864" cy="-18" rx="87.1846" ry="18"/>
<text text-anchor="middle" x="89.3864" y="-14.3" font-family="Times,serif" font-size="14.00">[root] var.tenant</text>
</g>
<!-- [root] provider.azurerm&#45;&gt;[root] var.tenant -->
<g id="edge19" class="edge"><title>[root] provider.azurerm&#45;&gt;[root] var.tenant</title>
<path fill="none" stroke="black" d="M268.255,-76.9666C234.006,-65.8675 182.734,-49.2515 143.853,-36.6511"/>
<polygon fill="black" stroke="black" points="144.844,-33.2933 134.252,-33.5399 142.686,-39.9524 144.844,-33.2933"/>
</g>
<!-- [root] meta.count&#45;boundary (count boundary fixup) -->
<g id="node8" class="node"><title>[root] meta.count&#45;boundary (count boundary fixup)</title>
<ellipse fill="none" stroke="black" cx="572.386" cy="-378" rx="247.756" ry="18"/>
<text text-anchor="middle" x="572.386" y="-374.3" font-family="Times,serif" font-size="14.00">[root] meta.count&#45;boundary (count boundary fixup)</text>
</g>
<!-- [root] meta.count&#45;boundary (count boundary fixup)&#45;&gt;[root] azurerm_public_ip.myip -->
<g id="edge7" class="edge"><title>[root] meta.count&#45;boundary (count boundary fixup)&#45;&gt;[root] azurerm_public_ip.myip</title>
<path fill="none" stroke="black" d="M478.615,-361.334C413.221,-350.409 325.903,-335.821 258.209,-324.512"/>
<polygon fill="black" stroke="black" points="258.384,-320.993 247.944,-322.797 257.231,-327.897 258.384,-320.993"/>
</g>
<!-- [root] meta.count&#45;boundary (count boundary fixup)&#45;&gt;[root] azurerm_subnet.mysub -->
<g id="edge8" class="edge"><title>[root] meta.count&#45;boundary (count boundary fixup)&#45;&gt;[root] azurerm_subnet.mysub</title>
<path fill="none" stroke="black" d="M521.4,-360.322C491.038,-350.391 452.296,-337.718 420.2,-327.219"/>
<polygon fill="black" stroke="black" points="421.062,-323.819 410.469,-324.036 418.885,-330.472 421.062,-323.819"/>
</g>
<!-- [root] output.bubba -->
<g id="node9" class="node"><title>[root] output.bubba</title>
<ellipse fill="none" stroke="black" cx="549.386" cy="-234" rx="102.082" ry="18"/>
<text text-anchor="middle" x="549.386" y="-230.3" font-family="Times,serif" font-size="14.00">[root] output.bubba</text>
</g>
<!-- [root] meta.count&#45;boundary (count boundary fixup)&#45;&gt;[root] output.bubba -->
<g id="edge9" class="edge"><title>[root] meta.count&#45;boundary (count boundary fixup)&#45;&gt;[root] output.bubba</title>
<path fill="none" stroke="black" d="M546.556,-360.049C535.017,-350.903 522.631,-338.509 516.386,-324 507.26,-302.797 518.002,-278.15 529.601,-260.177"/>
<polygon fill="black" stroke="black" points="532.489,-262.155 535.281,-251.934 526.725,-258.183 532.489,-262.155"/>
</g>
<!-- [root] output.more -->
<g id="node10" class="node"><title>[root] output.more</title>
<ellipse fill="none" stroke="black" cx="689.386" cy="-162" rx="96.6831" ry="18"/>
<text text-anchor="middle" x="689.386" y="-158.3" font-family="Times,serif" font-size="14.00">[root] output.more</text>
</g>
<!-- [root] meta.count&#45;boundary (count boundary fixup)&#45;&gt;[root] output.more -->
<g id="edge10" class="edge"><title>[root] meta.count&#45;boundary (count boundary fixup)&#45;&gt;[root] output.more</title>
<path fill="none" stroke="black" d="M623.827,-360.38C641.325,-352.17 659.253,-340.405 670.386,-324 697.626,-283.862 696.8,-224.797 693.352,-190.481"/>
<polygon fill="black" stroke="black" points="696.796,-189.797 692.172,-180.264 689.842,-190.6 696.796,-189.797"/>
</g>
<!-- [root] var.yo -->
<g id="node11" class="node"><title>[root] var.yo</title>
<ellipse fill="none" stroke="black" cx="593.386" cy="-306" rx="67.6881" ry="18"/>
<text text-anchor="middle" x="593.386" y="-302.3" font-family="Times,serif" font-size="14.00">[root] var.yo</text>
</g>
<!-- [root] meta.count&#45;boundary (count boundary fixup)&#45;&gt;[root] var.yo -->
<g id="edge11" class="edge"><title>[root] meta.count&#45;boundary (count boundary fixup)&#45;&gt;[root] var.yo</title>
<path fill="none" stroke="black" d="M577.577,-359.697C579.917,-351.898 582.734,-342.509 585.338,-333.829"/>
<polygon fill="black" stroke="black" points="588.734,-334.688 588.255,-324.104 582.029,-332.677 588.734,-334.688"/>
</g>
<!-- [root] output.bubba&#45;&gt;[root] azurerm_resource_group.thegroup -->
<g id="edge12" class="edge"><title>[root] output.bubba&#45;&gt;[root] azurerm_resource_group.thegroup</title>
<path fill="none" stroke="black" d="M498.236,-218.326C462.422,-208.051 414.143,-194.201 374.851,-182.928"/>
<polygon fill="black" stroke="black" points="375.646,-179.515 365.068,-180.122 373.715,-186.244 375.646,-179.515"/>
</g>
<!-- [root] output.more&#45;&gt;[root] var.appid -->
<g id="edge13" class="edge"><title>[root] output.more&#45;&gt;[root] var.appid</title>
<path fill="none" stroke="black" d="M689.386,-143.871C689.386,-119.67 689.386,-75.2108 689.386,-46.3932"/>
<polygon fill="black" stroke="black" points="692.886,-46.1892 689.386,-36.1893 685.886,-46.1893 692.886,-46.1892"/>
</g>
<!-- [root] provider.azurerm (close) -->
<g id="node13" class="node"><title>[root] provider.azurerm (close)</title>
<ellipse fill="none" stroke="black" cx="153.386" cy="-378" rx="153.273" ry="18"/>
<text text-anchor="middle" x="153.386" y="-374.3" font-family="Times,serif" font-size="14.00">[root] provider.azurerm (close)</text>
</g>
<!-- [root] provider.azurerm (close)&#45;&gt;[root] azurerm_public_ip.myip -->
<g id="edge14" class="edge"><title>[root] provider.azurerm (close)&#45;&gt;[root] azurerm_public_ip.myip</title>
<path fill="none" stroke="black" d="M153.386,-359.697C153.386,-351.983 153.386,-342.712 153.386,-334.112"/>
<polygon fill="black" stroke="black" points="156.886,-334.104 153.386,-324.104 149.886,-334.104 156.886,-334.104"/>
</g>
<!-- [root] provider.azurerm (close)&#45;&gt;[root] azurerm_subnet.mysub -->
<g id="edge15" class="edge"><title>[root] provider.azurerm (close)&#45;&gt;[root] azurerm_subnet.mysub</title>
<path fill="none" stroke="black" d="M200.675,-360.853C229.929,-350.863 267.737,-337.954 299,-327.278"/>
<polygon fill="black" stroke="black" points="300.143,-330.586 308.476,-324.043 297.881,-323.962 300.143,-330.586"/>
</g>
<!-- [root] root -->
<g id="node17" class="node"><title>[root] root</title>
<ellipse fill="none" stroke="black" cx="362.386" cy="-450" rx="58.4896" ry="18"/>
<text text-anchor="middle" x="362.386" y="-446.3" font-family="Times,serif" font-size="14.00">[root] root</text>
</g>
<!-- [root] root&#45;&gt;[root] meta.count&#45;boundary (count boundary fixup) -->
<g id="edge20" class="edge"><title>[root] root&#45;&gt;[root] meta.count&#45;boundary (count boundary fixup)</title>
<path fill="none" stroke="black" d="M400.904,-436.161C432.075,-425.771 476.525,-410.954 512.359,-399.009"/>
<polygon fill="black" stroke="black" points="513.84,-402.205 522.22,-395.722 511.626,-395.564 513.84,-402.205"/>
</g>
<!-- [root] root&#45;&gt;[root] provider.azurerm (close) -->
<g id="edge21" class="edge"><title>[root] root&#45;&gt;[root] provider.azurerm (close)</title>
<path fill="none" stroke="black" d="M324.053,-436.161C292.599,-425.626 247.56,-410.541 211.647,-398.513"/>
<polygon fill="black" stroke="black" points="212.372,-395.065 201.778,-395.208 210.149,-401.703 212.372,-395.065"/>
</g>
</g>
</svg>
